<svg width="405" height="346" viewBox="0 0 405 346" fill="none" xmlns="http://www.w3.org/2000/svg">
<path d="M339.682 91.5158C342.18 91.5158 344.205 89.4905 344.205 86.9921C344.205 84.4937 342.18 82.4684 339.682 82.4684C337.183 82.4684 335.158 84.4937 335.158 86.9921C335.158 89.4905 337.183 91.5158 339.682 91.5158Z" fill="url(#paint0_linear)"/>
<path d="M339.681 94.7393C343.96 94.7393 347.428 91.2708 347.428 86.9921C347.428 82.7134 343.96 79.2449 339.681 79.2449C335.403 79.2449 331.934 82.7134 331.934 86.9921C331.934 91.2708 335.403 94.7393 339.681 94.7393Z" stroke="url(#paint1_linear)" stroke-miterlimit="10"/>
<path d="M241.388 309.927C241.388 312.952 238.932 315.408 235.907 315.408C232.882 315.408 230.426 312.952 230.426 309.927C230.426 306.903 232.882 304.447 235.907 304.447C238.932 304.447 241.388 306.894 241.388 309.927Z" stroke="url(#paint2_linear)" stroke-miterlimit="10"/>
<path d="M361.533 111.417C367.497 111.417 372.332 106.582 372.332 100.617C372.332 94.6532 367.497 89.8182 361.533 89.8182C355.569 89.8182 350.734 94.6532 350.734 100.617C350.734 106.582 355.569 111.417 361.533 111.417Z" fill="url(#paint3_linear)"/>
<path d="M56.7369 217.656C56.7369 220.419 54.4976 222.658 51.7346 222.658C48.9716 222.658 46.7323 220.419 46.7323 217.656C46.7323 214.893 48.9716 212.654 51.7346 212.654C54.4976 212.654 56.7369 214.893 56.7369 217.656Z" fill="url(#paint4_linear)"/>
<path d="M307.239 74.5406L315.293 64.9424" stroke="url(#paint5_linear)" stroke-miterlimit="10"/>
<path d="M309.713 76.6084L322.363 61.5383" stroke="url(#paint6_linear)" stroke-miterlimit="10"/>
<path d="M307.239 84.5813L320.232 69.0869" stroke="url(#paint7_linear)" stroke-miterlimit="10"/>
<path d="M61.5315 186.288L69.5767 176.69" stroke="url(#paint8_linear)" stroke-miterlimit="10"/>
<path d="M63.9966 188.365L76.6467 173.286" stroke="url(#paint9_linear)" stroke-miterlimit="10"/>
<path d="M61.5315 196.329L74.5157 180.834" stroke="url(#paint10_linear)" stroke-miterlimit="10"/>
<path d="M330.029 240.004L340.304 227.742" stroke="url(#paint11_linear)" stroke-miterlimit="10"/>
<path d="M333.18 242.65L349.334 223.39" stroke="url(#paint12_linear)" stroke-miterlimit="10"/>
<path d="M330.029 252.826L346.625 233.042" stroke="url(#paint13_linear)" stroke-miterlimit="10"/>
<g opacity="0.5">
<path opacity="0.5" d="M313.361 25.9536L301.298 39.3983" stroke="url(#paint14_linear)" stroke-miterlimit="10"/>
<path opacity="0.5" d="M316.819 29.0596L297.875 50.1793" stroke="url(#paint15_linear)" stroke-miterlimit="10"/>
<path opacity="0.5" d="M327.69 23.9128L308.223 45.6104" stroke="url(#paint16_linear)" stroke-miterlimit="10"/>
</g>
<path d="M56.7369 234.171L72.0417 215.922" stroke="url(#paint17_linear)" stroke-miterlimit="10"/>
<path d="M61.4323 238.108L85.4775 209.448" stroke="url(#paint18_linear)" stroke-miterlimit="10"/>
<path d="M56.7369 253.259L81.4323 223.805" stroke="url(#paint19_linear)" stroke-miterlimit="10"/>
<path d="M85.4775 194.595C87.1381 194.595 88.4843 193.249 88.4843 191.588C88.4843 189.928 87.1381 188.582 85.4775 188.582C83.8169 188.582 82.4707 189.928 82.4707 191.588C82.4707 193.249 83.8169 194.595 85.4775 194.595Z" fill="white"/>
<path d="M87.4547 254.722C87.4547 256.383 86.1094 257.729 84.448 257.729C82.7866 257.729 81.4412 256.383 81.4412 254.722C81.4412 253.06 82.7866 251.715 84.448 251.715C86.1094 251.715 87.4547 253.06 87.4547 254.722Z" fill="white"/>
<path d="M71.7077 108.897C71.7077 109.665 71.0847 110.288 70.3172 110.288C69.5497 110.288 68.9266 109.665 68.9266 108.897C68.9266 108.13 69.5497 107.507 70.3172 107.507C71.0847 107.516 71.7077 108.13 71.7077 108.897Z" fill="white"/>
<path d="M338.327 149.087C339.095 149.087 339.718 148.465 339.718 147.697C339.718 146.929 339.095 146.306 338.327 146.306C337.559 146.306 336.937 146.929 336.937 147.697C336.937 148.465 337.559 149.087 338.327 149.087Z" fill="white"/>
<path d="M352.115 272.853C352.115 273.62 351.491 274.243 350.724 274.243C349.957 274.243 349.333 273.62 349.333 272.853C349.333 272.085 349.957 271.462 350.724 271.462C351.491 271.471 352.115 272.085 352.115 272.853Z" fill="white"/>
<path d="M56.7369 89.9989C58.3975 89.9989 59.7437 88.6527 59.7437 86.9921C59.7437 85.3315 58.3975 83.9854 56.7369 83.9854C55.0763 83.9854 53.7301 85.3315 53.7301 86.9921C53.7301 88.6527 55.0763 89.9989 56.7369 89.9989Z" fill="white"/>
<path d="M138.606 286.93C138.606 288.591 137.261 289.936 135.599 289.936C133.938 289.936 132.593 288.591 132.593 286.93C132.593 285.268 133.938 283.923 135.599 283.923C137.261 283.923 138.606 285.268 138.606 286.93Z" fill="white"/>
<path d="M333.036 285.115C333.036 286.776 331.69 288.122 330.029 288.122C328.367 288.122 327.022 286.776 327.022 285.115C327.022 283.453 328.367 282.108 330.029 282.108C331.69 282.108 333.036 283.453 333.036 285.115Z" fill="white"/>
<path d="M384.512 196.329C384.512 197.99 383.167 199.336 381.506 199.336C379.844 199.336 378.499 197.99 378.499 196.329C378.499 194.667 379.844 193.322 381.506 193.322C383.167 193.313 384.512 194.667 384.512 196.329Z" fill="white"/>
<path d="M23.1025 155.101C24.7631 155.101 26.1093 153.754 26.1093 152.094C26.1093 150.433 24.7631 149.087 23.1025 149.087C21.4419 149.087 20.0957 150.433 20.0957 152.094C20.0957 153.754 21.4419 155.101 23.1025 155.101Z" fill="white"/>
<path d="M108.141 290L116.448 293.377L120.186 280.465L108.141 290Z" fill="#FF7E3D"/>
<path d="M85.4775 279.219L92.2315 296.465L118.155 273.765L85.4775 279.219Z" fill="url(#paint20_linear)"/>
<path d="M378.092 137.232L374.472 155.399L344.964 137.602L378.092 137.232Z" fill="#FF7E3D"/>
<path d="M80.1137 68.1478L69.125 75.8498L82.344 82.6851L80.1137 68.1478Z" fill="#FF7E3D"/>
<path d="M349.406 167.733L336.918 162.83L338.526 177.62L349.406 167.733Z" fill="url(#paint21_linear)"/>
<path d="M234.977 36.1205C222.832 29.3666 207.79 24.9241 193.993 28.879C183.284 31.949 175.202 39.949 169.099 48.9603C162.227 59.1003 157.388 70.4683 152.259 81.5474C149.117 88.3284 145.695 94.8476 141.108 100.789C136.178 107.182 130.308 112.852 123.762 117.566C116.99 122.432 109.532 126.234 101.622 128.861C92.6018 131.859 83.2293 133.52 73.9742 135.615C58.7597 139.073 42.6242 144.446 32.6648 157.25C28.2584 162.911 25.6399 169.773 25.5225 176.97C25.3961 184.356 27.7618 191.634 31.491 197.954C39.9515 212.32 54.6603 220.537 70.0103 225.801C86.4437 231.435 103.789 234.117 119.88 240.798C127.916 244.139 135.609 248.519 141.983 254.505C148.304 260.446 153.189 267.679 157.532 275.137C165.722 289.223 172.313 304.582 184.115 316.167C189.559 321.512 196.069 325.837 203.419 328.04C210.805 330.243 218.697 330.243 226.2 328.645C261.46 321.124 277.153 285.593 291.365 256.419C299.311 240.112 308.124 224.239 321.515 211.733C334.445 199.661 349.876 190.451 361.93 177.412C372.639 165.837 380.693 151.01 378.806 134.785C377.009 119.362 367.411 105.719 355.637 96.0666C342.074 84.9514 325.298 78.4503 309.009 72.4728C300.268 69.2674 291.42 66.2787 282.932 62.4321C274.553 58.6308 266.499 54.1793 258.544 49.5743C254.742 47.3712 250.968 45.1319 247.176 42.9106C243.149 40.554 238.968 38.5133 234.896 36.247C234.58 36.0664 234.291 36.554 234.607 36.7346C238.67 38.9919 242.535 41.6194 246.544 43.9761C250.336 46.1973 254.11 48.4366 257.912 50.6398C265.686 55.1454 273.56 59.4976 281.731 63.2358C297.939 70.6579 315.257 75.308 331.42 82.8566C346.49 89.8905 360.666 99.3352 369.713 113.62C373.867 120.175 376.828 127.579 377.641 135.326C378.49 143.408 376.865 151.489 373.415 158.812C366.192 174.153 352.729 185.096 339.627 195.272C332.675 200.672 325.65 206.026 319.302 212.139C313.162 218.044 307.88 224.717 303.293 231.886C293.939 246.505 287.392 262.65 279.365 277.99C271.528 292.961 261.939 307.95 247.835 317.756C234.805 326.812 217.641 331.67 202.191 326.361C186.986 321.133 176.936 307.291 169.279 293.891C161.153 279.661 154.399 264.049 142.001 252.871C129.758 241.837 113.658 236.618 98.0375 232.446C81.5317 228.04 64.2947 224.428 49.7393 215.02C36.8995 206.722 26.2268 192.365 26.7325 176.482C27.2381 160.392 40.2404 149.078 54.0012 143.01C70.5159 135.724 89.0442 135.083 105.839 128.617C119.907 123.2 132.376 113.863 141.649 101.999C149.884 91.4706 154.525 78.9288 160.313 67.01C165.306 56.7256 170.968 46.1793 179.537 38.396C188.385 30.3508 199.744 27.3169 211.519 28.9602C219.636 30.0889 227.356 32.9783 234.535 36.888C235.022 37.1318 235.456 36.3914 234.977 36.1205Z" fill="url(#paint22_linear)"/>
<g opacity="0.4248">
<path opacity="0.4248" d="M239.672 9.97143C225.785 2.25131 208.575 -2.82319 192.801 1.70956C180.566 5.22198 171.329 14.3688 164.358 24.6622C156.494 36.274 150.959 49.2854 145.081 61.9626C141.478 69.7369 137.559 77.1952 132.313 84.0033C126.67 91.3261 119.943 97.8363 112.43 103.227C104.674 108.807 96.1232 113.159 87.0668 116.166C76.7462 119.597 66.0103 121.493 55.4188 123.904C38.0192 127.859 19.5541 133.999 8.15903 148.645C3.12967 155.11 0.149978 162.947 0.00550763 171.164C-0.138962 179.606 2.56985 187.913 6.82269 195.137C16.4932 211.561 33.3149 220.961 50.868 226.974C69.6852 233.421 89.5408 236.491 107.961 244.139C117.18 247.968 126.001 252.988 133.306 259.85C140.548 266.65 146.146 274.939 151.121 283.489C160.485 299.607 168.033 317.187 181.541 330.442C187.762 336.555 195.194 341.494 203.6 344.013C212.042 346.532 221.054 346.532 229.632 344.709C269.966 336.104 287.916 295.444 304.178 262.063C313.28 243.39 323.366 225.205 338.716 210.884C353.524 197.069 371.185 186.523 384.982 171.597C397.226 158.36 406.436 141.412 404.269 122.857C402.21 105.231 391.23 89.6286 377.768 78.5947C362.255 65.8813 343.059 58.4411 324.431 51.6059C314.417 47.9309 304.277 44.5088 294.553 40.1025C284.964 35.7503 275.736 30.6577 266.634 25.3755C262.282 22.8563 257.957 20.292 253.623 17.7457C249.018 15.046 244.25 12.6712 239.591 10.0798C239.275 9.89919 238.986 10.3868 239.302 10.5674C243.952 13.1498 248.404 16.1204 253 18.8112C257.334 21.3575 261.668 23.9128 266.011 26.441C274.905 31.5968 283.916 36.581 293.271 40.8609C311.826 49.3576 331.655 54.6759 350.156 63.317C367.42 71.3802 383.655 82.1974 394.029 98.5587C398.788 106.071 402.183 114.568 403.113 123.453C404.088 132.726 402.219 141.981 398.255 150.387C389.975 167.958 374.562 180.491 359.564 192.148C351.6 198.333 343.564 204.455 336.296 211.453C329.271 218.207 323.23 225.846 317.984 234.044C307.275 250.785 299.781 269.268 290.589 286.83C281.605 303.986 270.625 321.151 254.462 332.383C239.528 342.758 219.844 348.329 202.137 342.234C184.71 336.239 173.18 320.383 164.403 305.015C155.103 288.735 147.374 270.866 133.189 258.072C119.184 245.449 100.764 239.48 82.8952 234.713C63.9967 229.665 44.2495 225.521 27.5903 214.758C12.8724 205.25 0.637566 188.78 1.20642 170.568C1.7843 152.121 16.6918 139.137 32.4661 132.175C51.3736 123.832 72.6017 123.101 91.8343 115.687C107.916 109.493 122.182 98.8025 132.792 85.2403C142.218 73.1861 147.527 58.8384 154.146 45.2041C159.871 33.4207 166.354 21.3484 176.169 12.4274C186.327 3.1994 199.347 -0.276913 212.864 1.61926C222.164 2.91949 231.004 6.22425 239.221 10.7118C239.726 10.9737 240.16 10.2333 239.672 9.97143Z" fill="url(#paint23_linear)"/>
</g>
<path d="M305.027 214.153C315.663 202.658 329.117 194.405 340.729 184.004C350.851 174.938 360.151 163.417 362.427 149.647C364.612 136.356 359.447 123.281 351.113 113.069C341.831 101.692 328.91 94.3058 315.6 88.5631C301.054 82.2877 285.695 78.0168 271.428 71.0822C257.216 64.1657 244.16 55.2086 230.155 47.9399C219.546 42.432 206.516 39.0641 194.715 42.4681C185.631 45.0867 178.588 51.6239 173.189 59.1544C167.022 67.7504 162.679 77.5202 158.281 87.0823C155.762 92.5721 153.297 98.0801 149.983 103.155C146.272 108.825 141.785 113.981 136.701 118.459C131.491 123.055 125.64 126.92 119.374 129.909C112.159 133.349 104.403 135.362 96.6288 137.087C82.4888 140.22 67.7528 142.748 55.8792 151.651C50.886 155.399 46.5699 160.166 44.0507 165.936C41.5315 171.697 41.0259 178.08 42.299 184.22C45.0349 197.385 54.6964 207.986 66.1005 214.523C91.8703 229.304 126.092 226.767 148.232 248.347C158.977 258.821 164.801 272.925 172.295 285.647C178.95 296.952 187.518 308.194 200.042 313.277C212.819 318.469 227.374 315.76 239.139 309.241C251.862 302.198 261.18 290.568 268.494 278.252C270.336 275.146 272.07 271.986 273.731 268.78C275.447 265.485 276.765 262.035 278.381 258.695C278.535 258.37 278.056 258.081 277.894 258.406C276.295 261.719 274.363 264.889 272.666 268.148C270.959 271.426 269.189 274.677 267.293 277.855C263.564 284.112 259.383 290.117 254.435 295.471C244.891 305.801 232.024 313.566 217.767 314.668C210.914 315.2 203.997 314.036 197.83 310.948C191.807 307.932 186.733 303.372 182.435 298.234C173.378 287.408 167.961 274.243 160.593 262.315C156.927 256.383 152.737 250.713 147.545 246.026C142.326 241.313 136.214 237.701 129.803 234.875C116.629 229.06 102.408 226.442 88.6649 222.351C74.9763 218.279 61.0621 212.455 51.8792 201.042C43.5631 190.703 39.6173 176.293 46.3351 164.094C52.8543 152.256 66.1005 145.954 78.5971 142.514C93.2157 138.487 108.539 136.961 122.173 129.891C133.676 123.931 143.618 114.983 150.769 104.184C156.873 94.9739 160.638 84.3373 165.586 74.4953C169.956 65.8181 175.004 57.0235 182.444 50.5946C190.155 43.9309 199.898 41.4117 209.947 42.6758C224.945 44.5539 237.623 53.502 250.363 60.9422C257.072 64.861 263.835 68.7075 270.833 72.1025C277.578 75.3802 284.53 78.0439 291.573 80.5992C317.776 90.1432 349.74 101.168 359.6 130.333C361.776 136.762 362.418 143.642 361.144 150.324C359.844 157.132 356.747 163.453 352.765 169.087C344.259 181.15 332.124 189.692 320.711 198.758C314.959 203.326 309.361 208.094 304.422 213.539C304.052 213.954 304.657 214.559 305.027 214.153Z" fill="url(#paint24_linear)"/>
<defs>
<linearGradient id="paint0_linear" x1="335.162" y1="86.9957" x2="344.2" y2="86.9957" gradientUnits="userSpaceOnUse">
<stop offset="0.0277" stop-color="#FFD24D"/>
<stop offset="0.7154" stop-color="#F6BE56"/>
<stop offset="1" stop-color="#F2B45A"/>
</linearGradient>
<linearGradient id="paint1_linear" x1="331.48" y1="86.9957" x2="347.882" y2="86.9957" gradientUnits="userSpaceOnUse">
<stop offset="0.0277" stop-color="#FFD24D"/>
<stop offset="0.7154" stop-color="#F6BE56"/>
<stop offset="1" stop-color="#F2B45A"/>
</linearGradient>
<linearGradient id="paint2_linear" x1="229.972" y1="309.924" x2="241.835" y2="309.924" gradientUnits="userSpaceOnUse">
<stop offset="0.0277" stop-color="#FFD24D"/>
<stop offset="0.7154" stop-color="#F6BE56"/>
<stop offset="1" stop-color="#F2B45A"/>
</linearGradient>
<linearGradient id="paint3_linear" x1="350.729" y1="100.621" x2="372.333" y2="100.621" gradientUnits="userSpaceOnUse">
<stop offset="0.0277" stop-color="#FFD24D"/>
<stop offset="0.7154" stop-color="#F6BE56"/>
<stop offset="1" stop-color="#F2B45A"/>
</linearGradient>
<linearGradient id="paint4_linear" x1="46.7392" y1="217.653" x2="56.7364" y2="217.653" gradientUnits="userSpaceOnUse">
<stop offset="0.0277" stop-color="#FFD24D"/>
<stop offset="0.7154" stop-color="#F6BE56"/>
<stop offset="1" stop-color="#F2B45A"/>
</linearGradient>
<linearGradient id="paint5_linear" x1="306.538" y1="70.1546" x2="315.997" y2="69.3257" gradientUnits="userSpaceOnUse">
<stop offset="0.0277" stop-color="#FFD24D"/>
<stop offset="0.7154" stop-color="#F6BE56"/>
<stop offset="1" stop-color="#F2B45A"/>
</linearGradient>
<linearGradient id="paint6_linear" x1="308.789" y1="69.7086" x2="323.286" y2="68.4382" gradientUnits="userSpaceOnUse">
<stop offset="0.0277" stop-color="#FFD24D"/>
<stop offset="0.7154" stop-color="#F6BE56"/>
<stop offset="1" stop-color="#F2B45A"/>
</linearGradient>
<linearGradient id="paint7_linear" x1="306.301" y1="77.485" x2="321.178" y2="76.1813" gradientUnits="userSpaceOnUse">
<stop offset="0.0277" stop-color="#FFD24D"/>
<stop offset="0.7154" stop-color="#F6BE56"/>
<stop offset="1" stop-color="#F2B45A"/>
</linearGradient>
<linearGradient id="paint8_linear" x1="61.1815" y1="181.489" x2="69.9227" y2="181.489" gradientUnits="userSpaceOnUse">
<stop offset="0.0277" stop-color="#FFD24D"/>
<stop offset="0.1674" stop-color="#EBC34D"/>
<stop offset="0.4544" stop-color="#B69D4D"/>
<stop offset="0.8604" stop-color="#625F4E"/>
<stop offset="1" stop-color="#44494E"/>
</linearGradient>
<linearGradient id="paint9_linear" x1="63.6533" y1="180.822" x2="76.9911" y2="180.822" gradientUnits="userSpaceOnUse">
<stop offset="0.0277" stop-color="#FFD24D"/>
<stop offset="0.1674" stop-color="#EBC34D"/>
<stop offset="0.4544" stop-color="#B69D4D"/>
<stop offset="0.8604" stop-color="#625F4E"/>
<stop offset="1" stop-color="#44494E"/>
</linearGradient>
<linearGradient id="paint10_linear" x1="61.1815" y1="188.582" x2="74.866" y2="188.582" gradientUnits="userSpaceOnUse">
<stop offset="0.0277" stop-color="#FFD24D"/>
<stop offset="0.1674" stop-color="#EBC34D"/>
<stop offset="0.4544" stop-color="#B69D4D"/>
<stop offset="0.8604" stop-color="#625F4E"/>
<stop offset="1" stop-color="#44494E"/>
</linearGradient>
<linearGradient id="paint11_linear" x1="329.213" y1="234.395" x2="341.119" y2="233.352" gradientUnits="userSpaceOnUse">
<stop offset="0.0277" stop-color="#FFD24D"/>
<stop offset="0.7154" stop-color="#F6BE56"/>
<stop offset="1" stop-color="#F2B45A"/>
</linearGradient>
<linearGradient id="paint12_linear" x1="332.089" y1="233.825" x2="350.431" y2="232.218" gradientUnits="userSpaceOnUse">
<stop offset="0.0277" stop-color="#FFD24D"/>
<stop offset="0.7154" stop-color="#F6BE56"/>
<stop offset="1" stop-color="#F2B45A"/>
</linearGradient>
<linearGradient id="paint13_linear" x1="328.91" y1="243.759" x2="347.737" y2="242.109" gradientUnits="userSpaceOnUse">
<stop offset="0.0277" stop-color="#FFD24D"/>
<stop offset="0.7154" stop-color="#F6BE56"/>
<stop offset="1" stop-color="#F2B45A"/>
</linearGradient>
<linearGradient id="paint14_linear" x1="306.966" y1="25.9837" x2="307.691" y2="39.3732" gradientUnits="userSpaceOnUse">
<stop offset="0.0277" stop-color="#FFD24D"/>
<stop offset="0.7154" stop-color="#F6BE56"/>
<stop offset="1" stop-color="#F2B45A"/>
</linearGradient>
<linearGradient id="paint15_linear" x1="306.787" y1="29.2877" x2="307.907" y2="49.9596" gradientUnits="userSpaceOnUse">
<stop offset="0.0277" stop-color="#FFD24D"/>
<stop offset="0.7154" stop-color="#F6BE56"/>
<stop offset="1" stop-color="#F2B45A"/>
</linearGradient>
<linearGradient id="paint16_linear" x1="317.383" y1="24.1539" x2="318.532" y2="45.3746" gradientUnits="userSpaceOnUse">
<stop offset="0.0277" stop-color="#FFD24D"/>
<stop offset="0.7154" stop-color="#F6BE56"/>
<stop offset="1" stop-color="#F2B45A"/>
</linearGradient>
<linearGradient id="paint17_linear" x1="55.6834" y1="225.81" x2="73.0916" y2="224.284" gradientUnits="userSpaceOnUse">
<stop offset="0.0277" stop-color="#FFD24D"/>
<stop offset="0.1674" stop-color="#EBC34D"/>
<stop offset="0.4544" stop-color="#B69D4D"/>
<stop offset="0.8604" stop-color="#625F4E"/>
<stop offset="1" stop-color="#44494E"/>
</linearGradient>
<linearGradient id="paint18_linear" x1="59.9625" y1="224.962" x2="86.9489" y2="222.597" gradientUnits="userSpaceOnUse">
<stop offset="0.0277" stop-color="#FFD24D"/>
<stop offset="0.1674" stop-color="#EBC34D"/>
<stop offset="0.4544" stop-color="#B69D4D"/>
<stop offset="0.8604" stop-color="#625F4E"/>
<stop offset="1" stop-color="#44494E"/>
</linearGradient>
<linearGradient id="paint19_linear" x1="55.2321" y1="239.745" x2="82.9406" y2="237.317" gradientUnits="userSpaceOnUse">
<stop offset="0.0277" stop-color="#FFD24D"/>
<stop offset="0.1674" stop-color="#EBC34D"/>
<stop offset="0.4544" stop-color="#B69D4D"/>
<stop offset="0.8604" stop-color="#625F4E"/>
<stop offset="1" stop-color="#44494E"/>
</linearGradient>
<linearGradient id="paint20_linear" x1="85.4763" y1="285.116" x2="118.155" y2="285.116" gradientUnits="userSpaceOnUse">
<stop offset="0.0277" stop-color="#FFD24D"/>
<stop offset="0.7154" stop-color="#FFBE56"/>
<stop offset="1" stop-color="#FFB45A"/>
</linearGradient>
<linearGradient id="paint21_linear" x1="335.396" y1="164.409" x2="344.315" y2="173.011" gradientUnits="userSpaceOnUse">
<stop offset="0.0277" stop-color="#FFD24D"/>
<stop offset="0.7154" stop-color="#F6BE56"/>
<stop offset="1" stop-color="#F2B45A"/>
</linearGradient>
<linearGradient id="paint22_linear" x1="45.5569" y1="238.924" x2="374.484" y2="119.204" gradientUnits="userSpaceOnUse">
<stop offset="0.0277" stop-color="#FFD24D"/>
<stop offset="0.0356" stop-color="#F7CC4C"/>
<stop offset="0.0797" stop-color="#CEAE4A"/>
<stop offset="0.1292" stop-color="#A89348"/>
<stop offset="0.1831" stop-color="#887B45"/>
<stop offset="0.2427" stop-color="#6C6744"/>
<stop offset="0.3099" stop-color="#565742"/>
<stop offset="0.3884" stop-color="#454B41"/>
<stop offset="0.4856" stop-color="#3A4241"/>
<stop offset="0.6218" stop-color="#333D40"/>
<stop offset="1" stop-color="#313C40"/>
</linearGradient>
<linearGradient id="paint23_linear" x1="0.00442411" y1="173.004" x2="404.592" y2="173.004" gradientUnits="userSpaceOnUse">
<stop stop-color="#5C5A44"/>
<stop offset="0.6103" stop-color="#3F4541"/>
<stop offset="1" stop-color="#313C40"/>
</linearGradient>
<linearGradient id="paint24_linear" x1="125.252" y1="81.626" x2="297.439" y2="253.814" gradientUnits="userSpaceOnUse">
<stop stop-color="#313C40"/>
<stop offset="0.251" stop-color="#333E40"/>
<stop offset="0.397" stop-color="#3C4441"/>
<stop offset="0.5161" stop-color="#4A4E42"/>
<stop offset="0.6208" stop-color="#5E5D43"/>
<stop offset="0.716" stop-color="#786F44"/>
<stop offset="0.8042" stop-color="#988746"/>
<stop offset="0.8873" stop-color="#BDA249"/>
<stop offset="0.964" stop-color="#E8C14C"/>
<stop offset="1" stop-color="#FFD24D"/>
</linearGradient>
</defs>
</svg>
