<svg width="444" height="514" viewBox="0 0 444 514" fill="none" xmlns="http://www.w3.org/2000/svg">
<path d="M231.368 494.279L193.654 472.505M223.398 464.535L201.624 502.249L223.398 464.535Z" stroke="#8BD2BD" stroke-miterlimit="10"/>
<path d="M138.534 440.681L100.82 418.907M130.564 410.937L108.79 448.651L130.564 410.937Z" stroke="#8BD2BD" stroke-miterlimit="10"/>
<path d="M48.601 388.759L10.8873 366.985M40.6311 359.015L18.8571 396.729L40.6311 359.015Z" stroke="#8BD2BD" stroke-miterlimit="10"/>
<path d="M231.368 494.279L193.654 472.505M223.398 464.535L201.624 502.249L223.398 464.535Z" stroke="#6C6C6C" stroke-width="2" stroke-miterlimit="10"/>
<path d="M138.534 440.681L100.82 418.907M130.564 410.937L108.79 448.651L130.564 410.937Z" stroke="#6C6C6C" stroke-width="2" stroke-miterlimit="10"/>
<path d="M48.601 388.759L10.8873 366.985M40.6311 359.015L18.8571 396.729L40.6311 359.015Z" stroke="#6C6C6C" stroke-width="2" stroke-miterlimit="10"/>
<path d="M281.616 407.247L243.902 385.473M273.646 377.503L251.872 415.217L273.646 377.503Z" stroke="#8BD2BD" stroke-miterlimit="10"/>
<path d="M188.782 353.65L151.068 331.875M180.812 323.906L159.038 361.619L180.812 323.906Z" stroke="#8BD2BD" stroke-miterlimit="10"/>
<path d="M98.8485 301.727L61.1348 279.953M90.8787 271.983L69.1047 309.697L90.8787 271.983Z" stroke="#8BD2BD" stroke-miterlimit="10"/>
<path d="M281.616 407.247L243.902 385.473M273.646 377.503L251.872 415.217L273.646 377.503Z" stroke="#6C6C6C" stroke-width="2" stroke-miterlimit="10"/>
<path d="M188.782 353.65L151.068 331.875M180.812 323.906L159.038 361.619L180.812 323.906Z" stroke="#6C6C6C" stroke-width="2" stroke-miterlimit="10"/>
<path d="M98.8485 301.727L61.1348 279.953M90.8787 271.983L69.1047 309.697L90.8787 271.983Z" stroke="#6C6C6C" stroke-width="2" stroke-miterlimit="10"/>
<path d="M239.029 266.618L201.315 244.844M231.059 236.874L209.285 274.588L231.059 236.874Z" stroke="#8BD2BD" stroke-miterlimit="10"/>
<path d="M149.096 214.695L111.382 192.921M141.126 184.951L119.352 222.665L141.126 184.951Z" stroke="#8BD2BD" stroke-miterlimit="10"/>
<path d="M239.029 266.618L201.315 244.844M231.059 236.874L209.285 274.588L231.059 236.874Z" stroke="#6C6C6C" stroke-width="2" stroke-miterlimit="10"/>
<path d="M149.096 214.695L111.382 192.921M141.126 184.951L119.352 222.665L141.126 184.951Z" stroke="#6C6C6C" stroke-width="2" stroke-miterlimit="10"/>
<path d="M239.029 266.618L201.315 244.844M231.059 236.874L209.285 274.588L231.059 236.874Z" stroke="#6C6C6C" stroke-width="2" stroke-miterlimit="10"/>
<path d="M149.096 214.695L111.382 192.921M141.126 184.951L119.352 222.665L141.126 184.951Z" stroke="#6C6C6C" stroke-width="2" stroke-miterlimit="10"/>
<path d="M289.277 179.586L251.563 157.812M281.307 149.843L259.533 187.556L281.307 149.843Z" stroke="#8BD2BD" stroke-miterlimit="10"/>
<path d="M199.345 127.663L161.631 105.889M191.375 97.9188L169.601 135.633L191.375 97.9188Z" stroke="#8BD2BD" stroke-miterlimit="10"/>
<path d="M289.277 179.586L251.563 157.812M281.307 149.843L259.533 187.556L281.307 149.843Z" stroke="#6C6C6C" stroke-width="2" stroke-miterlimit="10"/>
<path d="M199.345 127.663L161.631 105.889M191.375 97.9188L169.601 135.633L191.375 97.9188Z" stroke="#6C6C6C" stroke-width="2" stroke-miterlimit="10"/>
<path d="M339.524 92.5547L301.811 70.7807M331.554 62.8109L309.78 100.525L331.554 62.8109Z" stroke="#8BD2BD" stroke-miterlimit="10"/>
<path d="M249.593 40.631L211.879 18.857M241.623 10.8872L219.849 48.6009L241.623 10.8872Z" stroke="#8BD2BD" stroke-miterlimit="10"/>
<path d="M339.524 92.5547L301.811 70.7807M331.554 62.8109L309.78 100.525L331.554 62.8109Z" stroke="#6C6C6C" stroke-width="2" stroke-miterlimit="10"/>
<path d="M249.593 40.631L211.879 18.857M241.623 10.8872L219.849 48.6009L241.623 10.8872Z" stroke="#6C6C6C" stroke-width="2" stroke-miterlimit="10"/>
</svg>
